<svg width="20" height="20" viewBox="0 0 20 20" fill="none" xmlns="http://www.w3.org/2000/svg">
<path d="M8.39112 2C7.90045 2 7.57334 2.33684 7.57334 2.84211V3.76842C6.18312 4.18947 5.12001 5.45263 5.12001 7.05263V9.57895C3.72978 9.57895 2.66667 10.6737 2.66667 12.1053C2.66667 13.5368 3.72978 14.6316 5.12001 14.6316C5.12001 16.4842 6.59201 18 8.39112 18H14.1156C15.9147 18 17.3867 16.4842 17.3867 14.6316V7.05263C17.3867 5.45263 16.3236 4.18947 14.9333 3.76842V2.84211C14.9333 2.33684 14.6062 2 14.1156 2C13.6249 2 13.2978 2.33684 13.2978 2.84211V3.68421H9.20889V2.84211C9.20889 2.33684 8.88178 2 8.39112 2ZM5.93778 12.9474H5.12001C4.62934 12.9474 4.30223 12.6105 4.30223 12.1053C4.30223 11.6 4.62934 11.2632 5.12001 11.2632H11.6622C12.1529 11.2632 12.48 11.6 12.48 12.1053C12.48 12.2737 12.48 12.4421 12.5618 12.6105V12.7789C12.5618 12.8632 12.5618 12.9474 12.6436 13.0316H5.93778V12.9474ZM15.7511 14.6316C15.7511 15.5579 15.0151 16.3158 14.1156 16.3158H8.39112C7.49156 16.3158 6.75556 15.5579 6.75556 14.6316H15.1787C15.424 14.6316 15.5876 14.5474 15.7511 14.4632V14.6316ZM14.1156 5.36842C15.0151 5.36842 15.7511 6.12632 15.7511 7.05263V12.0211C15.7511 12.5263 15.424 12.9474 15.0151 12.9474H14.688C14.6062 12.8632 14.5244 12.8632 14.3609 12.7789C14.1973 12.5263 14.1156 12.3579 14.1156 12.1053C14.1156 10.6737 13.0524 9.57895 11.6622 9.57895H6.75556V7.05263C6.75556 6.12632 7.49156 5.36842 8.39112 5.36842H14.1156Z" fill="url(#paint0_linear_1_36)"/>
<defs>
<linearGradient id="paint0_linear_1_36" x1="2.66667" y1="10.4211" x2="17.6676" y2="10.4211" gradientUnits="userSpaceOnUse">
<stop stop-color="#AD37E0"/>
<stop offset="1" stop-color="#EE2B3B"/>
</linearGradient>
</defs>
</svg>
