<svg width="24" height="24" viewBox="0 0 24 24" fill="none" xmlns="http://www.w3.org/2000/svg">
<path d="M10.0693 2.39999C9.48053 2.39999 9.088 2.8042 9.088 3.41052V4.5221C7.41973 5.02736 6.144 6.54315 6.144 8.46315V11.4947C4.47573 11.4947 3.2 12.8084 3.2 14.5263C3.2 16.2442 4.47573 17.5579 6.144 17.5579C6.144 19.781 7.9104 21.6 10.0693 21.6H16.9387C19.0976 21.6 20.864 19.781 20.864 17.5579V8.46315C20.864 6.54315 19.5883 5.02736 17.92 4.5221V3.41052C17.92 2.8042 17.5275 2.39999 16.9387 2.39999C16.3499 2.39999 15.9573 2.8042 15.9573 3.41052V4.42105H11.0507V3.41052C11.0507 2.8042 10.6581 2.39999 10.0693 2.39999ZM7.12533 15.5368H6.144C5.5552 15.5368 5.16266 15.1326 5.16266 14.5263C5.16266 13.92 5.5552 13.5158 6.144 13.5158H13.9947C14.5835 13.5158 14.976 13.92 14.976 14.5263C14.976 14.7284 14.976 14.9305 15.0741 15.1326V15.3347C15.0741 15.4358 15.0741 15.5368 15.1723 15.6379H7.12533V15.5368ZM18.9013 17.5579C18.9013 18.6695 18.0181 19.5789 16.9387 19.5789H10.0693C8.98986 19.5789 8.10666 18.6695 8.10666 17.5579H18.2144C18.5088 17.5579 18.7051 17.4568 18.9013 17.3558V17.5579ZM16.9387 6.4421C18.0181 6.4421 18.9013 7.35157 18.9013 8.46315V14.4253C18.9013 15.0316 18.5088 15.5368 18.0181 15.5368H17.6256C17.5275 15.4358 17.4293 15.4358 17.2331 15.3347C17.0368 15.0316 16.9387 14.8295 16.9387 14.5263C16.9387 12.8084 15.6629 11.4947 13.9947 11.4947H8.10666V8.46315C8.10666 7.35157 8.98986 6.4421 10.0693 6.4421H16.9387Z" fill="white"/>
</svg>
