<svg width="11" height="15" viewBox="0 0 11 15" fill="none" xmlns="http://www.w3.org/2000/svg">
<path d="M5.95 0.952598C5.65073 0.932488 5.35044 0.932488 5.05117 0.952598C4.01822 1.02073 3.02752 1.38841 2.20023 2.01067C1.37293 2.63292 0.74491 3.48279 0.392968 4.45632C0.00214564 5.4664 -0.0857798 6.5685 0.139949 7.62777C0.365679 8.68704 0.895273 9.65755 1.66394 10.4206L5.16859 13.9252C5.2121 13.9687 5.26377 14.0032 5.32063 14.0268C5.37749 14.0504 5.43845 14.0625 5.5 14.0625C5.56155 14.0625 5.6225 14.0504 5.67937 14.0268C5.73623 14.0032 5.7879 13.9687 5.83141 13.9252L9.33606 10.4206C10.1047 9.65755 10.6343 8.68704 10.86 7.62777C11.0858 6.5685 10.9979 5.4664 10.607 4.45632C10.2552 3.48295 9.62735 2.63319 8.80028 2.01094C7.97321 1.3887 6.98275 1.02093 5.95 0.952598ZM8.67344 9.75769L5.5 12.9309L2.32656 9.75769C1.68639 9.12128 1.24558 8.31208 1.05806 7.42909C0.870539 6.5461 0.944432 5.6276 1.2707 4.78594C1.55433 3.97757 2.07071 3.27113 2.75487 2.75553C3.43902 2.23993 4.26039 1.93818 5.11562 1.88827C5.24219 1.87913 5.37067 1.875 5.5 1.875C5.62933 1.875 5.75781 1.87913 5.88569 1.88827C6.74072 1.93838 7.56185 2.24021 8.24578 2.75581C8.92972 3.2714 9.44591 3.97773 9.72944 4.78594C10.0557 5.62761 10.1296 6.54612 9.94201 7.42911C9.75446 8.31211 9.31363 9.12129 8.67344 9.75769Z" fill="url(#paint0_linear_1_92)"/>
<path d="M6.90625 6.09375H5.96875V5.15625C5.96875 5.03193 5.91936 4.9127 5.83146 4.82479C5.74355 4.73689 5.62432 4.6875 5.5 4.6875C5.37568 4.6875 5.25645 4.73689 5.16854 4.82479C5.08064 4.9127 5.03125 5.03193 5.03125 5.15625V6.09375H4.09375C3.96943 6.09375 3.8502 6.14314 3.76229 6.23104C3.67439 6.31895 3.625 6.43818 3.625 6.5625C3.625 6.68682 3.67439 6.80605 3.76229 6.89396C3.8502 6.98186 3.96943 7.03125 4.09375 7.03125H5.03125V7.96875C5.03125 8.09307 5.08064 8.2123 5.16854 8.30021C5.25645 8.38811 5.37568 8.4375 5.5 8.4375C5.62432 8.4375 5.74355 8.38811 5.83146 8.30021C5.91936 8.2123 5.96875 8.09307 5.96875 7.96875V7.03125H6.90625C7.03057 7.03125 7.1498 6.98186 7.23771 6.89396C7.32561 6.80605 7.375 6.68682 7.375 6.5625C7.375 6.43818 7.32561 6.31895 7.23771 6.23104C7.1498 6.14314 7.03057 6.09375 6.90625 6.09375Z" fill="url(#paint1_linear_1_92)"/>
<path d="M5.5 2.8125C4.75832 2.8125 4.0333 3.03243 3.41661 3.44449C2.79993 3.85654 2.31928 4.44221 2.03545 5.12744C1.75162 5.81266 1.67736 6.56666 1.82205 7.29409C1.96675 8.02152 2.3239 8.6897 2.84835 9.21415C3.3728 9.7386 4.04098 10.0958 4.76841 10.2404C5.49584 10.3851 6.24984 10.3109 6.93506 10.027C7.62029 9.74322 8.20596 9.26257 8.61801 8.64589C9.03007 8.0292 9.25 7.30418 9.25 6.5625C9.24886 5.56829 8.8534 4.61512 8.15039 3.91211C7.44738 3.2091 6.49421 2.81364 5.5 2.8125ZM5.5 9.375C4.94374 9.375 4.39997 9.21005 3.93746 8.90101C3.47494 8.59197 3.11446 8.15271 2.90159 7.6388C2.68872 7.12488 2.63302 6.55938 2.74154 6.01381C2.85006 5.46824 3.11793 4.9671 3.51126 4.57376C3.9046 4.18043 4.40574 3.91256 4.95131 3.80404C5.49688 3.69552 6.06238 3.75122 6.5763 3.96409C7.09021 4.17696 7.52947 4.53745 7.83851 4.99996C8.14755 5.46247 8.3125 6.00624 8.3125 6.5625C8.31168 7.30817 8.0151 8.02306 7.48783 8.55033C6.96056 9.0776 6.24567 9.37418 5.5 9.375Z" fill="url(#paint2_linear_1_92)"/>
<defs>
<linearGradient id="paint0_linear_1_92" x1="0.0176048" y1="0.937515" x2="14.0021" y2="8.41456" gradientUnits="userSpaceOnUse">
<stop stop-color="#AD37E0"/>
<stop offset="1" stop-color="#EE2B3B"/>
</linearGradient>
<linearGradient id="paint1_linear_1_92" x1="3.625" y1="4.6875" x2="7.98794" y2="7.47978" gradientUnits="userSpaceOnUse">
<stop stop-color="#AD37E0"/>
<stop offset="1" stop-color="#EE2B3B"/>
</linearGradient>
<linearGradient id="paint2_linear_1_92" x1="1.75" y1="2.8125" x2="10.4759" y2="8.39706" gradientUnits="userSpaceOnUse">
<stop stop-color="#AD37E0"/>
<stop offset="1" stop-color="#EE2B3B"/>
</linearGradient>
</defs>
</svg>
