<svg width="24" height="24" viewBox="0 0 24 24" fill="none" xmlns="http://www.w3.org/2000/svg">
<path fill-rule="evenodd" clip-rule="evenodd" d="M7.11098 4.68306C8.55813 3.71611 10.2595 3.2 12 3.2C14.3331 3.20252 16.57 4.13047 18.2198 5.78024C19.8695 7.43002 20.7975 9.66687 20.8 12C20.8 13.7405 20.2839 15.4419 19.3169 16.889C18.35 18.3362 16.9756 19.4641 15.3676 20.1301C13.7596 20.7962 11.9902 20.9705 10.2832 20.6309C8.57617 20.2914 7.00816 19.4532 5.77746 18.2225C4.54676 16.9918 3.70864 15.4238 3.36909 13.7168C3.02954 12.0098 3.20381 10.2404 3.86986 8.63238C4.53591 7.02439 5.66383 5.65002 7.11098 4.68306ZM7.92582 18.0974C9.13178 18.9032 10.5496 19.3333 12 19.3333C13.9443 19.3312 15.8083 18.5579 17.1831 17.1831C18.5579 15.8083 19.3312 13.9443 19.3333 12C19.3333 10.5496 18.9032 9.13177 18.0974 7.92581C17.2916 6.71985 16.1463 5.77992 14.8063 5.22488C13.4664 4.66984 11.9919 4.52461 10.5693 4.80757C9.14681 5.09053 7.84014 5.78896 6.81455 6.81455C5.78897 7.84013 5.09053 9.14681 4.80758 10.5693C4.52462 11.9919 4.66984 13.4663 5.22488 14.8063C5.77993 16.1463 6.71986 17.2916 7.92582 18.0974ZM12.7301 11.5809L16.0338 13.5659C16.118 13.6145 16.1917 13.6794 16.2506 13.7569C16.3094 13.8343 16.3523 13.9228 16.3766 14.017C16.401 14.1112 16.4064 14.2094 16.3924 14.3057C16.3785 14.402 16.3455 14.4946 16.2955 14.578C16.2454 14.6615 16.1792 14.7341 16.1008 14.7916C16.0224 14.8491 15.9334 14.8905 15.8388 14.9131C15.7443 14.9358 15.6462 14.9394 15.5503 14.9237C15.4544 14.908 15.3625 14.8734 15.2801 14.8217L11.6215 12.6236C11.5167 12.5548 11.4298 12.4619 11.3681 12.3527C11.3064 12.2435 11.2716 12.1211 11.2667 11.9957V7.59938C11.2667 7.40505 11.3438 7.21868 11.481 7.08127C11.6182 6.94386 11.8043 6.86666 11.9984 6.86666C12.1924 6.86666 12.3786 6.94386 12.5158 7.08127C12.653 7.21868 12.7301 7.40505 12.7301 7.59938V11.5809Z" fill="white"/>
<path d="M12 3.2L12.0004 2.85H12V3.2ZM7.11098 4.68306L6.91653 4.39205L7.11098 4.68306ZM18.2198 5.78024L18.4672 5.53276L18.2198 5.78024ZM20.8 12H21.15V11.9996L20.8 12ZM19.3169 16.889L19.0259 16.6946L19.3169 16.889ZM15.3676 20.1301L15.5016 20.4535H15.5016L15.3676 20.1301ZM10.2832 20.6309L10.3515 20.2876L10.2832 20.6309ZM5.77746 18.2225L5.52997 18.47L5.77746 18.2225ZM3.36909 13.7168L3.02582 13.7851H3.02582L3.36909 13.7168ZM3.86986 8.63238L4.19322 8.76632L3.86986 8.63238ZM12 19.3333V19.6833H12.0004L12 19.3333ZM7.92582 18.0974L8.12027 17.8064H8.12027L7.92582 18.0974ZM17.1831 17.1831L16.9356 16.9356L17.1831 17.1831ZM19.3333 12L19.6833 12.0004V12H19.3333ZM18.0974 7.92581L17.8064 8.12026V8.12026L18.0974 7.92581ZM14.8063 5.22488L14.6724 5.54824L14.8063 5.22488ZM6.81455 6.81455L6.56706 6.56706L6.81455 6.81455ZM4.80758 10.5693L4.4643 10.5011L4.80758 10.5693ZM5.22488 14.8063L4.90153 14.9403L5.22488 14.8063ZM16.0338 13.5659L15.8535 13.8659L15.8588 13.869L16.0338 13.5659ZM12.7301 11.5809H12.3801V11.779L12.5498 11.881L12.7301 11.5809ZM16.2506 13.7569L16.5292 13.5451L16.5292 13.5451L16.2506 13.7569ZM16.3766 14.017L16.0378 14.1046H16.0378L16.3766 14.017ZM16.3924 14.3057L16.7388 14.3558V14.3558L16.3924 14.3057ZM16.2955 14.578L15.9954 14.3979L15.9954 14.3979L16.2955 14.578ZM16.1008 14.7916L15.8937 14.5094L15.8937 14.5094L16.1008 14.7916ZM15.8388 14.9131L15.7572 14.5728L15.7572 14.5728L15.8388 14.9131ZM15.2801 14.8217L15.466 14.5251L15.4604 14.5217L15.2801 14.8217ZM11.6215 12.6236L11.4294 12.9165L11.4413 12.9236L11.6215 12.6236ZM11.3681 12.3527L11.6728 12.1805L11.6728 12.1805L11.3681 12.3527ZM11.2667 11.9957H10.9164L10.9169 12.0094L11.2667 11.9957ZM11.481 7.08127L11.2333 6.83395V6.83395L11.481 7.08127ZM12.5158 7.08127L12.7634 6.83395V6.83395L12.5158 7.08127ZM12 2.85C10.1903 2.85 8.42124 3.38663 6.91653 4.39205L7.30543 4.97408C8.69503 4.04558 10.3287 3.55 12 3.55V2.85ZM18.4672 5.53276C16.7519 3.81744 14.4262 2.85262 12.0004 2.85L11.9996 3.55C14.2401 3.55242 16.388 4.4435 17.9723 6.02773L18.4672 5.53276ZM21.15 11.9996C21.1474 9.57379 20.1826 7.24807 18.4672 5.53276L17.9723 6.02773C19.5565 7.61196 20.4476 9.75994 20.45 12.0004L21.15 11.9996ZM19.6079 17.0835C20.6134 15.5788 21.15 13.8097 21.15 12H20.45C20.45 13.6712 19.9544 15.305 19.0259 16.6946L19.6079 17.0835ZM15.5016 20.4535C17.1735 19.761 18.6025 18.5882 19.6079 17.0835L19.0259 16.6946C18.0974 18.0842 16.7777 19.1672 15.2337 19.8068L15.5016 20.4535ZM10.2149 20.9742C11.9898 21.3272 13.8296 21.146 15.5016 20.4535L15.2337 19.8068C13.6896 20.4463 11.9906 20.6137 10.3515 20.2876L10.2149 20.9742ZM5.52997 18.47C6.80962 19.7497 8.44 20.6211 10.2149 20.9742L10.3515 20.2876C8.71235 19.9616 7.2067 19.1568 6.02495 17.975L5.52997 18.47ZM3.02582 13.7851C3.37887 15.56 4.25032 17.1904 5.52997 18.47L6.02495 17.975C4.84319 16.7933 4.03841 15.2876 3.71237 13.6485L3.02582 13.7851ZM3.5465 8.49844C2.85396 10.1704 2.67276 12.0101 3.02582 13.7851L3.71237 13.6485C3.38632 12.0094 3.55366 10.3104 4.19322 8.76632L3.5465 8.49844ZM6.91653 4.39205C5.41182 5.39746 4.23904 6.8265 3.5465 8.49844L4.19322 8.76632C4.83278 7.22229 5.91584 5.90258 7.30543 4.97408L6.91653 4.39205ZM12 18.9833C10.6188 18.9833 9.26867 18.5738 8.12027 17.8064L7.73137 18.3885C8.99489 19.2327 10.4804 19.6833 12 19.6833V18.9833ZM16.9356 16.9356C15.6263 18.2449 13.8512 18.9813 11.9996 18.9833L12.0004 19.6833C14.0373 19.6811 15.9902 18.8709 17.4306 17.4306L16.9356 16.9356ZM18.9833 11.9996C18.9813 13.8512 18.2449 15.6263 16.9356 16.9356L17.4306 17.4306C18.8709 15.9902 19.6811 14.0373 19.6833 12.0004L18.9833 11.9996ZM17.8064 8.12026C18.5738 9.26867 18.9833 10.6188 18.9833 12H19.6833C19.6833 10.4804 19.2327 8.99488 18.3885 7.73136L17.8064 8.12026ZM14.6724 5.54824C15.9484 6.07679 17.0391 6.97186 17.8064 8.12026L18.3885 7.73137C17.5442 6.46785 16.3442 5.48306 14.9403 4.90152L14.6724 5.54824ZM10.6376 5.15085C11.9923 4.88139 13.3964 5.01969 14.6724 5.54824L14.9403 4.90152C13.5363 4.31999 11.9915 4.16783 10.5011 4.4643L10.6376 5.15085ZM7.06204 7.06203C8.03867 6.0854 9.28299 5.4203 10.6376 5.15085L10.5011 4.4643C9.01064 4.76076 7.6416 5.49253 6.56706 6.56706L7.06204 7.06203ZM5.15085 10.6376C5.4203 9.28298 6.0854 8.03867 7.06204 7.06203L6.56706 6.56706C5.49253 7.64159 4.76076 9.01063 4.4643 10.5011L5.15085 10.6376ZM5.54824 14.6724C5.01969 13.3964 4.8814 11.9922 5.15085 10.6376L4.4643 10.5011C4.16784 11.9915 4.31999 13.5363 4.90153 14.9403L5.54824 14.6724ZM8.12027 17.8064C6.97186 17.0391 6.07679 15.9484 5.54824 14.6724L4.90153 14.9403C5.48306 16.3442 6.46785 17.5442 7.73137 18.3885L8.12027 17.8064ZM16.214 13.2659L12.9103 11.2809L12.5498 11.881L15.8535 13.8659L16.214 13.2659ZM16.5292 13.5451C16.4422 13.4306 16.3333 13.3347 16.2088 13.2628L15.8588 13.869C15.9027 13.8943 15.9412 13.9282 15.9719 13.9687L16.5292 13.5451ZM16.7155 13.9294C16.6795 13.7902 16.6162 13.6596 16.5292 13.5451L15.9719 13.9687C16.0026 14.0091 16.025 14.0553 16.0378 14.1046L16.7155 13.9294ZM16.7388 14.3558C16.7594 14.2135 16.7515 14.0686 16.7155 13.9294L16.0378 14.1046C16.0505 14.1539 16.0533 14.2052 16.046 14.2556L16.7388 14.3558ZM16.5956 14.7581C16.6695 14.6349 16.7182 14.4981 16.7388 14.3558L16.046 14.2556C16.0388 14.3059 16.0215 14.3543 15.9954 14.3979L16.5956 14.7581ZM16.3079 15.0738C16.4238 14.9887 16.5216 14.8814 16.5956 14.7581L15.9954 14.3979C15.9692 14.4415 15.9346 14.4794 15.8937 14.5094L16.3079 15.0738ZM15.9205 15.2535C16.0603 15.2199 16.192 15.1588 16.3079 15.0738L15.8937 14.5094C15.8528 14.5395 15.8064 14.561 15.7572 14.5728L15.9205 15.2535ZM15.4938 15.2691C15.6357 15.2924 15.7807 15.287 15.9205 15.2535L15.7572 14.5728C15.7079 14.5846 15.6568 14.5865 15.6068 14.5783L15.4938 15.2691ZM15.0943 15.1183C15.2161 15.1947 15.3519 15.2459 15.4938 15.2691L15.6068 14.5783C15.5568 14.5702 15.5089 14.5521 15.466 14.5252L15.0943 15.1183ZM11.4413 12.9236L15.0999 15.1218L15.4604 14.5217L11.8018 12.3236L11.4413 12.9236ZM11.0634 12.5249C11.1525 12.6827 11.2781 12.8168 11.4295 12.9162L11.8136 12.331C11.7554 12.2928 11.7071 12.2412 11.6728 12.1805L11.0634 12.5249ZM10.9169 12.0094C10.924 12.1904 10.9742 12.3672 11.0634 12.5249L11.6728 12.1805C11.6385 12.1198 11.6191 12.0517 11.6164 11.982L10.9169 12.0094ZM10.9167 7.59938V11.9957H11.6167V7.59938H10.9167ZM11.2333 6.83395C11.0305 7.03704 10.9167 7.31238 10.9167 7.59938H11.6167C11.6167 7.49772 11.657 7.40033 11.7286 7.32859L11.2333 6.83395ZM11.9984 6.51666C11.7113 6.51666 11.4361 6.63085 11.2333 6.83395L11.7286 7.32859C11.8003 7.25687 11.8973 7.21666 11.9984 7.21666V6.51666ZM12.7634 6.83395C12.5606 6.63085 12.2854 6.51666 11.9984 6.51666V7.21666C12.0995 7.21666 12.1965 7.25687 12.2681 7.32859L12.7634 6.83395ZM13.0801 7.59938C13.0801 7.31238 12.9662 7.03704 12.7634 6.83395L12.2681 7.32859C12.3398 7.40033 12.3801 7.49772 12.3801 7.59938H13.0801ZM13.0801 11.5809V7.59938H12.3801V11.5809H13.0801Z" fill="white"/>
</svg>
