<svg width="30" height="30" viewBox="0 0 30 30" fill="none" xmlns="http://www.w3.org/2000/svg">
<path d="M26.25 13.0125H23.125C22.9596 13.0132 22.796 13.0467 22.6437 13.1111C22.4913 13.1754 22.3533 13.2694 22.2375 13.3875L20.6875 15L17.1875 11.0125C17.0706 10.8876 16.9293 10.7881 16.7723 10.72C16.6154 10.6519 16.4461 10.6168 16.275 10.6168C16.1039 10.6168 15.9347 10.6519 15.7777 10.72C15.6208 10.7881 15.4794 10.8876 15.3625 11.0125L13.2375 13.1375H11.25C10.9185 13.1375 10.6006 13.2692 10.3661 13.5036C10.1317 13.738 10 14.056 10 14.3875C10 14.719 10.1317 15.037 10.3661 15.2714C10.6006 15.5058 10.9185 15.6375 11.25 15.6375H13.75C13.9145 15.6385 14.0776 15.6069 14.2299 15.5447C14.3822 15.4825 14.5207 15.3909 14.6375 15.275L16.25 13.6L19.75 17.5875C19.8629 17.7162 20.0011 17.8203 20.1559 17.8934C20.3107 17.9666 20.4789 18.0071 20.65 18.0125C20.8145 18.0135 20.9776 17.9819 21.1299 17.9197C21.2822 17.8575 21.4207 17.7659 21.5375 17.65L23.6625 15.5125H26.25C26.5815 15.5125 26.8995 15.3808 27.1339 15.1464C27.3683 14.912 27.5 14.594 27.5 14.2625C27.5 13.931 27.3683 13.613 27.1339 13.3786C26.8995 13.1442 26.5815 13.0125 26.25 13.0125ZM17.0125 19.6375L14.6375 22.0125C14.5213 22.1297 14.3831 22.2227 14.2307 22.2861C14.0784 22.3496 13.915 22.3823 13.75 22.3823C13.585 22.3823 13.4216 22.3496 13.2693 22.2861C13.117 22.2227 12.9787 22.1297 12.8625 22.0125L6.35001 15.5C5.92141 15.0717 5.58141 14.5631 5.34944 14.0033C5.11747 13.4435 4.99807 12.8435 4.99807 12.2375C4.99807 11.6316 5.11747 11.0315 5.34944 10.4717C5.58141 9.91195 5.92141 9.40335 6.35001 8.97501C7.21459 8.11322 8.38554 7.62931 9.60626 7.62931C10.827 7.62931 11.9979 8.11322 12.8625 8.97501C12.9787 9.09217 13.117 9.18516 13.2693 9.24862C13.4216 9.31208 13.585 9.34475 13.75 9.34475C13.915 9.34475 14.0784 9.31208 14.2307 9.24862C14.3831 9.18516 14.5213 9.09217 14.6375 8.97501C15.5158 8.13966 16.6816 7.67381 17.8938 7.67381C19.1059 7.67381 20.2717 8.13966 21.15 8.97501C21.4285 9.25718 21.672 9.57196 21.875 9.91251C22.057 10.1628 22.3254 10.3366 22.6282 10.4004C22.931 10.4642 23.2467 10.4135 23.5142 10.2579C23.7817 10.1024 23.9821 9.85316 24.0764 9.55845C24.1708 9.26373 24.1525 8.94449 24.025 8.66251C23.7161 8.14944 23.3468 7.67523 22.925 7.25001C21.7388 6.04982 20.1638 5.31138 18.4825 5.16708C16.8012 5.02277 15.1234 5.48202 13.75 6.46251C12.6886 5.69787 11.4365 5.24135 10.1321 5.14332C8.82758 5.04529 7.52137 5.30956 6.35759 5.90697C5.1938 6.50438 4.21769 7.41169 3.53698 8.5288C2.85626 9.6459 2.49741 10.9293 2.50001 12.2375C2.49964 13.1676 2.68397 14.0885 3.04232 14.9469C3.40066 15.8052 3.92589 16.5838 4.58751 17.2375L11.1 23.75C11.8031 24.4523 12.7563 24.8467 13.75 24.8467C14.7438 24.8467 15.6969 24.4523 16.4 23.75L18.75 21.4C18.9828 21.1658 19.1135 20.849 19.1135 20.5188C19.1135 20.1885 18.9828 19.8717 18.75 19.6375C18.5169 19.4122 18.2054 19.2863 17.8813 19.2863C17.5571 19.2863 17.2456 19.4122 17.0125 19.6375Z" fill="url(#paint0_linear_1_109)"/>
<defs>
<linearGradient id="paint0_linear_1_109" x1="2.5" y1="15.5041" x2="27.9771" y2="15.5041" gradientUnits="userSpaceOnUse">
<stop stop-color="#AD37E0"/>
<stop offset="1" stop-color="#EE2B3B"/>
</linearGradient>
</defs>
</svg>
