<svg width="11" height="18" viewBox="0 0 11 18" fill="none" xmlns="http://www.w3.org/2000/svg">
<path d="M1.34416 16.6478C1.12379 16.4222 1 16.1163 1 15.7974C1 15.4784 1.12379 15.1725 1.34416 14.947L7.16269 8.99274L1.34416 3.03852C1.13004 2.81166 1.01156 2.50781 1.01424 2.19242C1.01691 1.87703 1.14054 1.57533 1.35848 1.35231C1.57642 1.12929 1.87124 1.00279 2.17944 1.00005C2.48764 0.997305 2.78456 1.11855 3.00626 1.33766L9.65584 8.14231C9.87621 8.36788 10 8.67378 10 8.99274C10 9.3117 9.87621 9.6176 9.65584 9.84317L3.00626 16.6478C2.78583 16.8733 2.4869 17 2.17521 17C1.86352 17 1.56459 16.8733 1.34416 16.6478Z" fill="white" stroke="white"/>
</svg>
