<svg width="24" height="28" viewBox="0 0 24 28" fill="none" xmlns="http://www.w3.org/2000/svg">
<path d="M24 5C24.0015 4.44965 23.8517 3.90948 23.5668 3.4386C23.2819 2.96773 22.8729 2.58429 22.3847 2.33027C21.8965 2.07624 21.3478 1.96141 20.7987 1.99834C20.2496 2.03527 19.7212 2.22254 19.2714 2.53965C18.8216 2.85677 18.4677 3.29151 18.2484 3.79629C18.0291 4.30107 17.9529 4.85645 18.0282 5.40164C18.1034 5.94683 18.3271 6.46082 18.6749 6.88735C19.0227 7.31389 19.4811 7.63655 20 7.82V20C20 21.5913 19.3679 23.1174 18.2426 24.2426C17.1174 25.3679 15.5913 26 14 26C12.4087 26 10.8826 25.3679 9.75736 24.2426C8.63214 23.1174 8 21.5913 8 20V18.92C9.6646 18.6797 11.187 17.8482 12.2888 16.5775C13.3906 15.3068 13.998 13.6818 14 12V1C14 0.734784 13.8946 0.48043 13.7071 0.292893C13.5196 0.105357 13.2652 0 13 0H10C9.73478 0 9.48043 0.105357 9.29289 0.292893C9.10536 0.48043 9 0.734784 9 1C9 1.26522 9.10536 1.51957 9.29289 1.70711C9.48043 1.89464 9.73478 2 10 2H12V12C12 13.3261 11.4732 14.5979 10.5355 15.5355C9.59785 16.4732 8.32608 17 7 17C5.67392 17 4.40215 16.4732 3.46447 15.5355C2.52678 14.5979 2 13.3261 2 12V2H4C4.26522 2 4.51957 1.89464 4.70711 1.70711C4.89464 1.51957 5 1.26522 5 1C5 0.734784 4.89464 0.48043 4.70711 0.292893C4.51957 0.105357 4.26522 0 4 0H1C0.734784 0 0.48043 0.105357 0.292893 0.292893C0.105357 0.48043 0 0.734784 0 1V12C0.00197111 13.6818 0.609407 15.3068 1.71118 16.5775C2.81295 17.8482 4.3354 18.6797 6 18.92V20C6 22.1217 6.84285 24.1566 8.34315 25.6569C9.84344 27.1571 11.8783 28 14 28C16.1217 28 18.1566 27.1571 19.6569 25.6569C21.1571 24.1566 22 22.1217 22 20V7.82C22.5835 7.61369 23.089 7.23193 23.4471 6.72707C23.8051 6.2222 23.9983 5.61894 24 5ZM21 6C20.8022 6 20.6089 5.94135 20.4444 5.83147C20.28 5.72159 20.1518 5.56541 20.0761 5.38268C20.0004 5.19996 19.9806 4.99889 20.0192 4.80491C20.0578 4.61093 20.153 4.43275 20.2929 4.29289C20.4327 4.15304 20.6109 4.0578 20.8049 4.01921C20.9989 3.98063 21.2 4.00043 21.3827 4.07612C21.5654 4.15181 21.7216 4.27998 21.8315 4.44443C21.9414 4.60888 22 4.80222 22 5C22 5.26522 21.8946 5.51957 21.7071 5.70711C21.5196 5.89464 21.2652 6 21 6Z" fill="white"/>
</svg>
