<svg width="75" height="23" viewBox="0 0 75 23" fill="none" xmlns="http://www.w3.org/2000/svg">
<path d="M43.6469 18.2406C41.2531 18.2406 39.9406 17.9125 37.925 17.0844L37.1781 16.7437L36.3313 21.6656C37.7875 22.2656 40.4125 22.7812 43.1281 22.8219C49.5062 22.8219 53.675 19.8625 53.725 15.3094C53.775 12.8062 52.1312 10.9062 48.6594 9.34062C46.5531 8.325 45.2406 7.64375 45.2406 6.6125C45.2406 5.7 46.3625 4.72812 48.7063 4.72812C50.2637 4.69066 51.812 4.9769 53.2531 5.56875L53.8156 5.81875L54.6625 1.0625L54.5156 1.09375C52.7716 0.467738 50.931 0.153571 49.0781 0.165625C43.0781 0.165625 38.8438 3.14687 38.8125 7.41875C38.775 10.5594 41.825 12.3281 44.1281 13.3812C46.4938 14.4594 47.2844 15.1375 47.2781 16.1062C47.2625 17.5781 45.3875 18.2406 43.6469 18.2406ZM70.0875 0.568749H65.4C63.9406 0.568749 62.85 0.959375 62.2094 2.39062L53.1937 22.5156H59.5719L60.8469 19.2219L68.6281 19.2281C68.8187 19.9969 69.3781 22.5156 69.3781 22.5156H75L70.0875 0.568749ZM62.5938 14.7187L65.0125 8.58437C64.9813 8.64687 65.5125 7.31562 65.8187 6.49062L66.2344 8.38437L67.6375 14.7187H62.5938ZM26.3875 22.3406H32.4625L36.2594 0.384374H30.1875V0.378124L26.3875 22.3406ZM15.3844 15.5344L14.7531 12.4844V12.4937L12.6219 2.4125C12.2563 1.01562 11.1875 0.603124 9.8625 0.553124H0.078125L0 1.01562C2.20312 1.53125 4.1875 2.27812 5.9625 3.19375C6.23813 3.35488 6.43996 3.61726 6.525 3.925L11.775 22.4844H18.1938L27.7594 0.568749H21.325L15.3844 15.5344Z" fill="white"/>
</svg>
