<svg width="34" height="34" viewBox="0 0 34 34" fill="none" xmlns="http://www.w3.org/2000/svg">
<path d="M19.9017 21.0741C19.6696 21.0747 19.4426 21.0062 19.2495 20.8775C19.0564 20.7487 18.9058 20.5655 18.817 20.3511C18.7282 20.1366 18.7051 19.9007 18.7507 19.6731C18.7962 19.4455 18.9083 19.2366 19.0728 19.0728C19.618 18.5265 19.931 17.7714 19.931 17C19.931 16.2286 19.618 15.4735 19.0728 14.9272C18.964 14.8183 18.8776 14.6891 18.8187 14.5469C18.7598 14.4046 18.7295 14.2522 18.7295 14.0983C18.7295 13.9443 18.7598 13.7919 18.8187 13.6497C18.8776 13.5075 18.964 13.3782 19.0728 13.2694C19.1817 13.1605 19.3109 13.0742 19.4531 13.0153C19.5953 12.9564 19.7478 12.926 19.9017 12.926C20.0557 12.926 20.2081 12.9564 20.3503 13.0153C20.4925 13.0742 20.6218 13.1605 20.7306 13.2694C21.7131 14.2519 22.2759 15.6107 22.2759 17C22.2759 18.3893 21.7131 19.7481 20.7306 20.7306C20.5108 20.9505 20.2126 21.0741 19.9017 21.0741Z" fill="white"/>
<path d="M23.2185 24.3897C22.9864 24.3902 22.7594 24.3218 22.5662 24.193C22.3731 24.0643 22.2226 23.8811 22.1338 23.6667C22.045 23.4522 22.0219 23.2162 22.0674 22.9887C22.113 22.7611 22.2251 22.5522 22.3896 22.3884C23.8082 20.9698 24.6207 19.006 24.6207 17C24.6207 14.994 23.8082 13.0302 22.3896 11.6116C22.2807 11.5027 22.1944 11.3735 22.1355 11.2313C22.0766 11.0891 22.0462 10.9366 22.0462 10.7827C22.0462 10.6287 22.0766 10.4763 22.1355 10.3341C22.1944 10.1919 22.2807 10.0626 22.3896 9.95379C22.4984 9.84494 22.6277 9.75859 22.7699 9.69968C22.9121 9.64077 23.0645 9.61045 23.2185 9.61045C23.3724 9.61045 23.5249 9.64077 23.6671 9.69968C23.8093 9.75859 23.9385 9.84494 24.0474 9.95379C25.9021 11.8085 26.9655 14.3773 26.9655 17C26.9655 19.6227 25.9021 22.1914 24.0474 24.0462C23.9387 24.1553 23.8095 24.2419 23.6673 24.3008C23.525 24.3598 23.3725 24.39 23.2185 24.3897Z" fill="white"/>
<path d="M26.5341 27.7065C26.302 27.707 26.075 27.6385 25.8818 27.5098C25.6887 27.3811 25.5382 27.1979 25.4494 26.9834C25.3606 26.769 25.3375 26.533 25.383 26.3054C25.4285 26.0778 25.5407 25.8689 25.7052 25.7052C27.9961 23.4131 29.3103 20.2406 29.3103 17C29.3103 13.7594 27.9961 10.5869 25.7052 8.29483C25.5963 8.18597 25.51 8.05675 25.4511 7.91453C25.3922 7.7723 25.3618 7.61987 25.3618 7.46593C25.3618 7.31199 25.3922 7.15956 25.4511 7.01733C25.51 6.87511 25.5963 6.74589 25.7052 6.63703C25.814 6.52818 25.9432 6.44184 26.0855 6.38292C26.2277 6.32401 26.3801 6.29369 26.5341 6.29369C26.688 6.29369 26.8404 6.32401 26.9827 6.38292C27.1249 6.44184 27.2541 6.52818 27.363 6.63703C30.0912 9.36524 31.6552 13.1428 31.6552 17C31.6552 20.8572 30.0912 24.6348 27.363 27.363C27.2542 27.472 27.125 27.5585 26.9828 27.6174C26.8405 27.6764 26.688 27.7066 26.5341 27.7065ZM14.0983 21.0741C13.9443 21.0743 13.7918 21.044 13.6496 20.9851C13.5073 20.9261 13.3781 20.8397 13.2694 20.7306C12.2869 19.7481 11.7241 18.3893 11.7241 17C11.7241 15.6107 12.2869 14.2519 13.2694 13.2694C13.3782 13.1605 13.5075 13.0742 13.6497 13.0153C13.7919 12.9564 13.9443 12.926 14.0983 12.926C14.2522 12.926 14.4046 12.9564 14.5469 13.0153C14.6891 13.0742 14.8183 13.1605 14.9272 13.2694C15.036 13.3782 15.1224 13.5075 15.1813 13.6497C15.2402 13.7919 15.2705 13.9443 15.2705 14.0983C15.2705 14.2522 15.2402 14.4046 15.1813 14.5469C15.1224 14.6891 15.036 14.8183 14.9272 14.9272C14.382 15.4735 14.069 16.2286 14.069 17C14.069 17.7714 14.382 18.5265 14.9272 19.0728C15.0917 19.2366 15.2038 19.4455 15.2493 19.6731C15.2949 19.9007 15.2718 20.1366 15.183 20.3511C15.0941 20.5655 14.9436 20.7487 14.7505 20.8775C14.5574 21.0062 14.3304 21.0746 14.0983 21.0741Z" fill="white"/>
<path d="M10.7815 24.3897C10.6275 24.3899 10.475 24.3596 10.3328 24.3007C10.1905 24.2417 10.0614 24.1552 9.95262 24.0462C8.09786 22.1914 7.03448 19.6227 7.03448 17C7.03448 14.3773 8.09786 11.8085 9.95262 9.95379C10.0615 9.84494 10.1907 9.75859 10.3329 9.69968C10.4751 9.64077 10.6276 9.61045 10.7815 9.61045C10.9355 9.61045 11.0879 9.64077 11.2301 9.69968C11.3723 9.75859 11.5016 9.84494 11.6104 9.95379C11.7193 10.0626 11.8056 10.1919 11.8645 10.3341C11.9234 10.4763 11.9538 10.6287 11.9538 10.7827C11.9538 10.9366 11.9234 11.0891 11.8645 11.2313C11.8056 11.3735 11.7193 11.5027 11.6104 11.6116C10.1918 13.0302 9.37931 14.994 9.37931 17C9.37931 19.006 10.1918 20.9698 11.6104 22.3884C11.7749 22.5522 11.887 22.7611 11.9326 22.9887C11.9781 23.2162 11.955 23.4522 11.8662 23.6667C11.7774 23.8811 11.6269 24.0643 11.4338 24.193C11.2406 24.3218 11.0136 24.3902 10.7815 24.3897Z" fill="white"/>
<path d="M7.46594 27.7065C7.31196 27.7066 7.15946 27.6764 7.01722 27.6174C6.87497 27.5585 6.74577 27.472 6.63704 27.363C3.90883 24.6348 2.34483 20.8572 2.34483 17C2.34483 13.1428 3.90883 9.36524 6.63704 6.63703C6.74589 6.52818 6.87512 6.44184 7.01734 6.38292C7.15956 6.32401 7.312 6.29369 7.46594 6.29369C7.61988 6.29369 7.77231 6.32401 7.91453 6.38292C8.05676 6.44184 8.18598 6.52818 8.29483 6.63703C8.40369 6.74589 8.49003 6.87511 8.54894 7.01733C8.60785 7.15956 8.63817 7.31199 8.63817 7.46593C8.63817 7.61987 8.60785 7.7723 8.54894 7.91453C8.49003 8.05675 8.40369 8.18597 8.29483 8.29483C6.00394 10.5869 4.68966 13.7594 4.68966 17C4.68966 20.2406 6.00394 23.4131 8.29483 25.7052C8.45932 25.8689 8.57146 26.0778 8.617 26.3054C8.66254 26.533 8.63944 26.769 8.55062 26.9834C8.46181 27.1979 8.31129 27.3811 8.11817 27.5098C7.92505 27.6385 7.69803 27.707 7.46594 27.7065Z" fill="white"/>
<path d="M17 18.1724C17.6475 18.1724 18.1724 17.6475 18.1724 17C18.1724 16.3525 17.6475 15.8276 17 15.8276C16.3525 15.8276 15.8276 16.3525 15.8276 17C15.8276 17.6475 16.3525 18.1724 17 18.1724Z" fill="white"/>
</svg>
